<?xml version="1.0" encoding="UTF-8" standalone="no"?>
<svg
   xmlns:osb="http://www.openswatchbook.org/uri/2009/osb"
   xmlns:dc="http://purl.org/dc/elements/1.1/"
   xmlns:cc="http://creativecommons.org/ns#"
   xmlns:rdf="http://www.w3.org/1999/02/22-rdf-syntax-ns#"
   xmlns:svg="http://www.w3.org/2000/svg"
   xmlns="http://www.w3.org/2000/svg"
   xmlns:xlink="http://www.w3.org/1999/xlink"
   xmlns:sodipodi="http://sodipodi.sourceforge.net/DTD/sodipodi-0.dtd"
   xmlns:inkscape="http://www.inkscape.org/namespaces/inkscape"
   version="1.1"
   id="svg6214"
   viewBox="0 0 2560 1600"
   height="1600"
   width="2560"
   preserveAspectRatio="xMinYMax slice"
   inkscape:version="0.48.5 r10040"
   sodipodi:docname="your-way_deepsea-wide-large.svg"
   style="enable-background:new"
   inkscape:export-filename="/home/sister/Desktop/chimaera/chimarea-working/backgrounds/final/"
   inkscape:export-xdpi="90"
   inkscape:export-ydpi="90">
  <sodipodi:namedview
     pagecolor="#ffffff"
     bordercolor="#666666"
     borderopacity="1"
     objecttolerance="10"
     gridtolerance="10"
     guidetolerance="10"
     inkscape:pageopacity="0"
     inkscape:pageshadow="2"
     inkscape:window-width="1328"
     inkscape:window-height="1144"
     id="namedview4497"
     showgrid="false"
     inkscape:zoom="6.4965435"
     inkscape:cx="370.79582"
     inkscape:cy="240.80834"
     inkscape:window-x="470"
     inkscape:window-y="37"
     inkscape:window-maximized="0"
     inkscape:current-layer="svg6214"
     showguides="false" />
  <defs
     id="defs6216">
    <linearGradient
       id="linearGradient13042">
      <stop
         id="stop13044"
         offset="0"
         style="stop-color:#7a7a7a;stop-opacity:1" />
    </linearGradient>
    <linearGradient
       osb:paint="solid"
       id="Logo">
      <stop
         id="stop12986"
         offset="0"
         style="stop-color:#1A4762;stop-opacity:1" />
    </linearGradient>
    <linearGradient
       osb:paint="solid"
       id="Swoosh"
       gradientTransform="translate(0,800)">
      <stop
         id="stop12968"
         offset="0"
         style="stop-color:#1A4562;stop-opacity:1" />
    </linearGradient>
    <linearGradient
       osb:paint="solid"
       id="text">
      <stop
         id="stop12962"
         offset="0"
         style="stop-color:#25678C;stop-opacity:1" />
    </linearGradient>
    <linearGradient
       osb:paint="solid"
       id="Background">
      <stop
         id="stop12956"
         offset="0"
         style="stop-color:#132F40;stop-opacity:1" />
    </linearGradient>
    <clipPath
       id="clipPath7741-5-5"
       clipPathUnits="userSpaceOnUse">
      <path
         id="path7743-9-54"
         d="m 781.17578,2204.9575 -77.3086,0 1.4587,0 18.2331,33.5491 -22.6091,27.7144 5.8346,16.7745 74.3913,0 z"
         style="fill:#1A4562;fill-rule:evenodd;stroke:none;stroke-width:1px;stroke-linecap:butt;stroke-linejoin:miter;stroke-opacity:1"
         inkscape:connector-curvature="0" />
    </clipPath>
    <clipPath
       id="clipPath11301"
       clipPathUnits="userSpaceOnUse">
      <path
         id="path11303"
         d="m 193.98457,397.87227 c 146.6324,0 293.26476,0 439.89716,0 0,91.64524 0,183.29048 0,274.93572 -146.6324,0 -293.26476,0 -439.89716,0 0,-91.64524 0,-183.29048 0,-274.93572 z"
         style="display:inline;opacity:1;fill:#ffffff;fill-opacity:1;fill-rule:nonzero;stroke:none;stroke-width:64;stroke-linecap:round;stroke-linejoin:round;stroke-miterlimit:4;stroke-dasharray:none;stroke-opacity:1"
         inkscape:connector-curvature="0" />
    </clipPath>
    <clipPath
       id="clipPath4420"
       clipPathUnits="userSpaceOnUse">
      <rect
         y="-400"
         x="0"
         height="1920"
         width="2560"
         id="rect4422"
         style="fill:#5599ff" />
    </clipPath>
    <linearGradient
       gradientUnits="userSpaceOnUse"
       y2="382.2023"
       x2="1233.257"
       y1="382.2023"
       x1="398.7648"
       id="linearGradient12964"
       xlink:href="#text" />
    <linearGradient
       gradientUnits="userSpaceOnUse"
       y2="372.09656"
       x2="995.38293"
       y1="372.09656"
       x1="56.088791"
       id="linearGradient12988"
       xlink:href="#Logo" />
    <linearGradient
       gradientUnits="userSpaceOnUse"
       id="linearGradient13040"
       xlink:href="#Background"
       gradientTransform="matrix(1,0,0,0.83333333,0,333.33333)" />
    <linearGradient
       gradientUnits="userSpaceOnUse"
       y2="372.09656"
       x2="995.38293"
       y1="372.09656"
       x1="56.088791"
       id="linearGradient13046"
       xlink:href="#Logo" />
    <clipPath
       id="clipPath4584"
       clipPathUnits="userSpaceOnUse">
      <path
         inkscape:connector-curvature="0"
         id="path4586"
         d="m 0,841.89 595.28,0 L 595.28,0 0,0 0,841.89 Z" />
    </clipPath>
    <linearGradient
       gradientUnits="userSpaceOnUse"
       y2="372.09656"
       x2="995.38293"
       y1="372.09656"
       x1="56.088791"
       id="linearGradient13046-1"
       xlink:href="#Logo" />
    <linearGradient
       gradientUnits="userSpaceOnUse"
       y2="372.09656"
       x2="995.38293"
       y1="372.09656"
       x1="56.088791"
       id="linearGradient12988-1"
       xlink:href="#Logo" />
    <clipPath
       id="clipPath7741-5-5-9"
       clipPathUnits="userSpaceOnUse">
      <path
         inkscape:connector-curvature="0"
         id="path7743-9-54-1"
         d="m 781.17578,2204.9575 -77.3086,0 1.4587,0 18.2331,33.5491 -22.6091,27.7144 5.8346,16.7745 74.3913,0 z"
         style="fill:#1A4562;fill-rule:evenodd;stroke:none;stroke-width:1px;stroke-linecap:butt;stroke-linejoin:miter;stroke-opacity:1" />
    </clipPath>
    <linearGradient
       osb:paint="solid"
       id="text-9">
      <stop
         id="stop12962-9"
         offset="0"
         style="stop-color:#1A4762;stop-opacity:1;" />
    </linearGradient>
    <linearGradient
       id="linearGradient4205"
       osb:paint="solid">
      <stop
         style="stop-color:#1A4562;stop-opacity:1;"
         offset="0"
         id="stop4207" />
    </linearGradient>
    <clipPath
       id="clipPath4420-9"
       clipPathUnits="userSpaceOnUse">
      <rect
         y="-400"
         x="0"
         height="1920"
         width="2560"
         id="rect4422-0"
         style="fill:#5599ff" />
    </clipPath>
    <linearGradient
       osb:paint="solid"
       id="Background-5">
      <stop
         id="stop12956-3"
         offset="0"
         style="stop-color:#132F40;stop-opacity:1;" />
    </linearGradient>
  </defs>
  <metadata
     id="metadata6219">
    <rdf:RDF>
      <cc:Work
         rdf:about="">
        <dc:format>image/svg+xml</dc:format>
        <dc:type
           rdf:resource="http://purl.org/dc/dcmitype/StillImage" />
        <dc:title></dc:title>
      </cc:Work>
    </rdf:RDF>
  </metadata>
  <style
     id="style4636"
     type="text/css">
	.st0{fill:#1C1E21;}
	.st1{fill:#343B43;}
</style>
  <path
     inkscape:connector-curvature="0"
     id="dark-bg"
     d="m 0,0 c 853.3333,0 1706.6667,0 2560,0 0,533.33332 0,1066.6667 0,1600 -853.3333,0 -1706.6667,0 -2560,0 C 0,1066.6667 0,533.33332 0,0 Z"
     style="opacity:1;fill:#132F40;fill-opacity:1;fill-rule:nonzero;stroke:none;stroke-width:64;stroke-linecap:round;stroke-linejoin:round;stroke-miterlimit:4;stroke-dasharray:none;stroke-opacity:1"
     inkscape:export-filename="/home/sister/Desktop/chimaera/chimarea-working/backgrounds/final/your-way-deepsea-wide-small.png"
     inkscape:export-xdpi="45"
     inkscape:export-ydpi="45" />
  <g
     id="g4709"
     transform="matrix(1.2479598,0,0,1.2479598,907.97989,252.11464)"
     style="fill:#1A4762;fill-opacity:1">
    <path
       id="path4638"
       d="m -400.7,268 c -4.2,0 -7.7,2.5 -7.7,6.1 0,3.4 2.3,5 7.6,6.4 5.4,1.5 7,2.8 7,6.4 0,3.8 -2.9,5.9 -6.9,5.9 -3.5,0 -5.5,-1.1 -7.8,-2.9 l -0.7,0.8 c 2.1,1.8 4.7,3.2 8.5,3.2 4.8,0 8.2,-2.8 8.2,-6.9 0,-4.1 -2.2,-5.7 -7.8,-7.2 -4.9,-1.3 -6.7,-2.6 -6.7,-5.6 0,-3.2 2.7,-5.2 6.4,-5.2 2.8,0 4.5,0.8 6.7,2.5 l 0.7,-0.9 c -2.3,-1.8 -4.5,-2.6 -7.5,-2.6 l 0,0 z m 0,0"
       class="st0"
       inkscape:connector-curvature="0"
       style="fill:#25678C;fill-opacity:1" />
    <path
       id="path4640"
       d="m -376.1,268 c -6,0 -10.1,4.7 -10.1,13 0,8.1 3.9,12.9 10.1,12.9 6,0 10.1,-4.8 10.1,-13.1 -0.1,-8.3 -4,-12.8 -10.1,-12.8 l 0,0 z m 0,0.9 c 5.5,0 8.7,4.2 8.7,11.9 0,7.8 -3.3,12 -8.7,12 -5.5,0 -8.7,-4.4 -8.7,-11.9 -0.1,-7.8 3.3,-12 8.7,-12 l 0,0 z m 0,0"
       class="st0"
       inkscape:connector-curvature="0"
       style="fill:#25678C;fill-opacity:1" />
    <path
       id="path4642"
       d="m -350.9,259 c 1.9,0 3.4,0.5 5.1,1.5 l 0.4,-0.9 c -1.6,-1 -3.6,-1.5 -5.7,-1.5 -3.5,0 -6.1,2 -6.1,5.8 l 0,4.7 -4.3,0 0,1 4.3,0 0,24 1.3,0 0,-24 6.9,0 0.2,-1 -7.1,0 0,-4.6 c 0.2,-3.6 2,-5 5,-5 l 0,0 z m 0,0"
       class="st0"
       inkscape:connector-curvature="0"
       style="fill:#25678C;fill-opacity:1" />
    <path
       id="path4644"
       d="m -332.3,292.4 -0.6,-0.9 c -1.3,0.8 -2.5,1.3 -4.3,1.3 -2.9,0 -4.3,-1.8 -4.3,-5.1 l 0,-18.3 6.7,0 0.2,-1 -6.9,0 0,-6.4 -1.3,0.1 0,6.3 -4.1,0 0,1 4.1,0 0,18.3 c 0,4 2.2,6.1 5.5,6.1 2.1,0 3.7,-0.6 5,-1.4 l 0,0 z m 0,0"
       class="st0"
       inkscape:connector-curvature="0"
       style="fill:#25678C;fill-opacity:1" />
    <path
       id="path4646"
       d="m -307.8,293.4 6.5,-24.9 -1.4,0 -6.1,23.8 0.3,0.1 -6.8,-23.9 -1.6,0 -6.8,23.8 0.3,0.1 -6.2,-23.9 -1.4,0 6.6,24.9 1.6,0 6.8,-23.9 -0.3,0 6.8,23.9 1.7,0 z m 0,0"
       class="st0"
       inkscape:connector-curvature="0"
       style="fill:#25678C;fill-opacity:1" />
    <path
       id="path4648"
       d="m -280,288.1 0,-12.6 c 0,-4.9 -2.3,-7.5 -7.5,-7.5 -2.4,0 -4.7,0.6 -7.3,1.7 l 0.3,0.9 c 2.6,-1.1 4.8,-1.7 7,-1.7 4.8,0 6.3,2.4 6.3,6.7 l 0,3 -5.5,0 c -5.9,0 -9.9,2.8 -9.9,7.9 0,4.4 2.9,7.4 7.6,7.4 3.7,0 6.4,-1.7 8.2,-4.9 l -0.2,0 c 0,3 1.1,4.2 3.1,4.9 l 0.3,-0.8 c -1.9,-0.6 -2.4,-1.7 -2.4,-5 l 0,0 z m -9.1,4.7 c -3.9,0 -6.2,-2.4 -6.2,-6.4 0,-4.6 3.3,-6.9 8.7,-6.9 l 5.3,0 0,8.2 c -1.6,3.2 -3.9,5.1 -7.8,5.1 l 0,0 z m 0,0"
       class="st0"
       inkscape:connector-curvature="0"
       style="fill:#25678C;fill-opacity:1" />
    <path
       id="path4650"
       d="m -260.4,268 c -3.8,0 -6.2,2 -7.6,6.6 l 0.2,0.1 0,-6.2 -1.2,0 0,24.9 1.3,0 0,-16.5 c 1.6,-5.4 3.6,-7.9 7.3,-7.9 0.9,0 1.6,0.1 2.3,0.3 l 0.2,-0.9 c -0.6,-0.3 -1.3,-0.4 -2.5,-0.4 l 0,0 z m 0,0"
       class="st0"
       inkscape:connector-curvature="0"
       style="fill:#25678C;fill-opacity:1" />
    <path
       id="path4652"
       d="m -235.4,279.7 c 0,-7 -3,-11.8 -9.2,-11.8 -5.8,0 -9.7,4.9 -9.7,13.2 0,8.1 4,12.7 10.1,12.7 3.2,0 5.6,-1.1 7.7,-2.9 l -0.7,-0.9 c -2.3,1.9 -4.1,2.8 -7.1,2.8 -5,0 -8.5,-3.6 -8.7,-11.3 l 17.4,0 c 0.2,-0.5 0.2,-1.1 0.2,-1.8 l 0,0 z m -1.1,0.9 -16.4,0 c 0.1,-7.9 3.7,-11.7 8.5,-11.7 5.5,0 7.8,4.4 7.8,10.4 l 0,1.3 0.1,0 z m 0,0"
       class="st0"
       inkscape:connector-curvature="0"
       style="fill:#25678C;fill-opacity:1" />
    <path
       id="path4654"
       d="m -206.1,259 c 1.9,0 3.4,0.5 5.1,1.5 l 0.4,-0.9 c -1.6,-1 -3.6,-1.5 -5.7,-1.5 -3.5,0 -6.1,2 -6.1,5.8 l 0,4.7 -4.3,0 0,1 4.3,0 0,24 1.3,0 0,-24 6.9,0 0.2,-1 -7.1,0 0,-4.6 c 0.1,-3.6 2,-5 5,-5 l 0,0 z m 0,0"
       class="st0"
       inkscape:connector-curvature="0"
       style="fill:#25678C;fill-opacity:1" />
    <path
       id="path4656"
       d="m -189.1,268 c -3.8,0 -6.2,2 -7.6,6.6 l 0.2,0.1 0,-6.2 -1.2,0 0,24.9 1.3,0 0,-16.5 c 1.6,-5.4 3.6,-7.9 7.3,-7.9 0.9,0 1.6,0.1 2.3,0.3 l 0.2,-0.9 c -0.6,-0.3 -1.4,-0.4 -2.5,-0.4 l 0,0 z m 0,0"
       class="st0"
       inkscape:connector-curvature="0"
       style="fill:#25678C;fill-opacity:1" />
    <path
       id="path4658"
       d="m -164.1,279.7 c 0,-7 -3,-11.8 -9.2,-11.8 -5.8,0 -9.7,4.9 -9.7,13.2 0,8.1 4,12.7 10.1,12.7 3.2,0 5.6,-1.1 7.7,-2.9 l -0.7,-0.9 c -2.3,1.9 -4.1,2.8 -7.1,2.8 -5,0 -8.5,-3.6 -8.7,-11.3 l 17.4,0 c 0.1,-0.5 0.2,-1.1 0.2,-1.8 l 0,0 z m -1.2,0.9 -16.4,0 c 0.1,-7.9 3.7,-11.7 8.5,-11.7 5.5,0 7.8,4.4 7.8,10.4 l 0,1.3 0.1,0 z m 0,0"
       class="st0"
       inkscape:connector-curvature="0"
       style="fill:#25678C;fill-opacity:1" />
    <path
       id="path4660"
       d="m -138.7,279.7 c 0,-7 -3,-11.8 -9.2,-11.8 -5.8,0 -9.7,4.9 -9.7,13.2 0,8.1 4,12.7 10.1,12.7 3.2,0 5.6,-1.1 7.7,-2.9 l -0.7,-0.9 c -2.3,1.9 -4.1,2.8 -7.1,2.8 -5,0 -8.5,-3.6 -8.7,-11.3 l 17.4,0 c 0.1,-0.5 0.2,-1.1 0.2,-1.8 l 0,0 z m -1.2,0.9 -16.4,0 c 0.1,-7.9 3.7,-11.7 8.5,-11.7 5.5,0 7.8,4.4 7.8,10.4 l 0,1.3 0.1,0 z m 0,0"
       class="st0"
       inkscape:connector-curvature="0"
       style="fill:#25678C;fill-opacity:1" />
    <path
       id="path4662"
       d="m -113.6,258.2 -1.2,-0.1 0,13.9 0.2,0 c -1.3,-2 -3.6,-4 -7.5,-4 -6.1,0 -9.8,5.3 -9.8,13 0,8.1 3.8,12.9 9.3,12.9 4.2,0 6.6,-2.2 8,-4.8 l -0.2,0 0.1,4.3 1.2,0 -0.1,-35.2 0,0 z m -9,34.6 c -4.9,0 -8,-4.3 -8,-11.9 0,-7.4 3.3,-12 8.5,-12 3.7,0 5.8,2.1 7.3,4.3 l 0,14.3 c -1.7,3.3 -3.8,5.3 -7.8,5.3 l 0,0 z m 0,0"
       class="st0"
       inkscape:connector-curvature="0"
       style="fill:#25678C;fill-opacity:1" />
    <path
       id="path4664"
       d="m -95,268 c -6,0 -10.1,4.7 -10.1,13 0,8.1 3.9,12.9 10.1,12.9 6,0 10.1,-4.8 10.1,-13.1 0,-8.3 -4,-12.8 -10.1,-12.8 l 0,0 z m 0,0.9 c 5.5,0 8.7,4.2 8.7,11.9 0,7.8 -3.3,12 -8.7,12 -5.5,0 -8.7,-4.4 -8.7,-11.9 0,-7.8 3.4,-12 8.7,-12 l 0,0 z m 0,0"
       class="st0"
       inkscape:connector-curvature="0"
       style="fill:#25678C;fill-opacity:1" />
    <path
       id="path4666"
       d="m -52.4,268 c -3.4,0 -6.3,2.3 -8.4,5.7 l 0.2,0 c -0.5,-3.6 -2.7,-5.7 -6.1,-5.7 -3.3,0 -6.3,2.2 -8.3,5.5 l 0.2,0 -0.1,-5 -1.1,0 0,24.9 1.3,0 0,-18.5 c 2.1,-3.5 4.6,-6 8,-6 3.4,0 5,2.4 5,6.7 l 0,17.7 1.3,0 0,-18.5 c 2.1,-3.5 4.6,-6 8,-6 3.4,0 5,2.4 5,6.8 l 0,17.6 1.3,0 0,-17.7 c -0.1,-4.7 -2.3,-7.5 -6.3,-7.5 l 0,0 z m 0,0"
       class="st0"
       inkscape:connector-curvature="0"
       style="fill:#25678C;fill-opacity:1" />
    <path
       id="path4668"
       d="m -37,291.5 c -0.7,0 -1.3,0.5 -1.3,1.2 0,0.4 0.4,0.8 0.7,0.9 l -1.8,6 1.1,0 2.1,-5.4 c 0.2,-0.5 0.4,-1 0.4,-1.5 0.1,-0.7 -0.4,-1.2 -1.2,-1.2 l 0,0 z m 0,0"
       class="st0"
       inkscape:connector-curvature="0"
       style="fill:#25678C;fill-opacity:1" />
    <path
       id="path4670"
       d="m -7.2,293.4 8.7,-25 -1.5,0 -8.2,24 0.2,0.1 -8.5,-24.1 -1.4,0 9,24.9 0.4,0 c -1.8,4.8 -2.7,7 -7.8,8.5 l 0.1,0.9 c 5.5,-1.5 7.1,-3.8 9,-9.3 l 0,0 z m 0,0"
       class="st0"
       inkscape:connector-curvature="0"
       style="fill:#25678C;fill-opacity:1" />
    <path
       id="path4672"
       d="m 15.2,268 c -6,0 -10.1,4.7 -10.1,13 0,8.1 3.9,12.9 10.1,12.9 6,0 10.1,-4.8 10.1,-13.1 -0.1,-8.3 -4,-12.8 -10.1,-12.8 l 0,0 z m 0,0.9 c 5.5,0 8.7,4.2 8.7,11.9 0,7.8 -3.3,12 -8.7,12 -5.5,0 -8.7,-4.4 -8.7,-11.9 -0.1,-7.8 3.3,-12 8.7,-12 l 0,0 z m 0,0"
       class="st0"
       inkscape:connector-curvature="0"
       style="fill:#25678C;fill-opacity:1" />
    <path
       id="path4674"
       d="m 50.8,293.4 0,-24.9 -1.3,0 0,18.6 c -2,3.4 -4.4,5.8 -8.3,5.8 -3.9,0 -6,-2.2 -6,-6.7 l 0,-17.7 -1.3,0 0,17.7 c 0,5 2.7,7.6 7.2,7.6 4.1,0 7,-2.5 8.7,-5.6 l -0.3,0 0,5.1 1.3,0 z m 0,0"
       class="st0"
       inkscape:connector-curvature="0"
       style="fill:#25678C;fill-opacity:1" />
    <path
       id="path4676"
       d="m 70.4,268 c -3.8,0 -6.2,2 -7.6,6.6 l 0.2,0.1 0,-6.2 -1.2,0 0,24.9 1.3,0 0,-16.5 c 1.6,-5.4 3.6,-7.9 7.3,-7.9 0.9,0 1.6,0.1 2.3,0.3 l 0.2,-0.9 C 72.3,268.1 71.5,268 70.4,268 l 0,0 z m 0,0"
       class="st0"
       inkscape:connector-curvature="0"
       style="fill:#25678C;fill-opacity:1" />
    <path
       id="path4678"
       d="m 112.5,293.4 6.5,-24.9 -1.4,0 -6.1,23.8 0.3,0.1 -6.8,-23.9 -1.6,0 -6.8,23.8 0.3,0.1 -6.2,-23.9 -1.4,0 6.6,24.9 1.6,0 6.8,-23.9 -0.3,0 6.8,23.9 1.7,0 z m 0,0"
       class="st0"
       inkscape:connector-curvature="0"
       style="fill:#25678C;fill-opacity:1" />
    <path
       id="path4680"
       d="m 140.3,288.1 0,-12.6 c 0,-4.9 -2.3,-7.5 -7.5,-7.5 -2.4,0 -4.7,0.6 -7.3,1.7 l 0.3,0.9 c 2.6,-1.1 4.8,-1.7 7,-1.7 4.8,0 6.2,2.4 6.2,6.7 l 0,3 -5.5,0 c -5.9,0 -9.9,2.8 -9.9,7.9 0,4.4 2.9,7.4 7.6,7.4 3.7,0 6.4,-1.7 8.2,-4.9 l -0.2,0 c 0,3 1.1,4.2 3.1,4.9 l 0.3,-0.8 c -1.8,-0.6 -2.3,-1.7 -2.3,-5 l 0,0 z m -9.1,4.7 c -3.9,0 -6.2,-2.4 -6.2,-6.4 0,-4.6 3.3,-6.9 8.7,-6.9 l 5.3,0 0,8.2 c -1.7,3.2 -4,5.1 -7.8,5.1 l 0,0 z m 0,0"
       class="st0"
       inkscape:connector-curvature="0"
       style="fill:#25678C;fill-opacity:1" />
    <path
       id="path4682"
       d="m 157,293.4 8.7,-25 -1.5,0 -8.2,24 0.2,0.1 -8.5,-24.1 -1.4,0 9,24.9 0.4,0 c -1.8,4.8 -2.7,7 -7.8,8.5 l 0.1,0.9 c 5.5,-1.5 7,-3.8 9,-9.3 l 0,0 z m 0,0"
       class="st0"
       inkscape:connector-curvature="0"
       style="fill:#25678C;fill-opacity:1" />
    <g
       id="g4684"
       style="fill:#1A4762;fill-opacity:1">
      <path
         id="path4686"
         d="m -332.2,239.3 -1.2,0 c -1.5,0 -3,-0.9 -3.7,-2.2 L -365,184 c -0.7,-1.3 -0.6,-2.8 0.1,-4.1 0.8,-1.2 2.1,-2 3.5,-2 l 1.1,0 c 1.5,0 3,0.9 3.7,2.2 l 23.7,45.4 23.6,-45.4 c 0.7,-1.4 2.1,-2.2 3.7,-2.2 l 1,0 c 1.4,0 2.8,0.8 3.5,2 0.8,1.2 0.8,2.8 0.1,4.1 l -27.7,53.1 c -0.6,1.3 -2,2.2 -3.5,2.2 z"
         class="st1"
         inkscape:connector-curvature="0"
         style="fill:#1A4762;fill-opacity:1" />
    </g>
    <g
       id="g4688"
       style="fill:#1A4762;fill-opacity:1">
      <path
         id="path4690"
         d="m -265.2,239.6 c -9.6,0 -16.5,-1.8 -21.3,-5.4 -4.9,-3.8 -7.6,-9.1 -7.6,-15.5 l 0,-36.9 c 0,-2.3 1.9,-4.2 4.2,-4.2 l 1,0 c 2.3,0 4.2,1.9 4.2,4.2 l 0,36.8 c 0,3.7 1.3,6.4 4,8.5 3,2.3 8.2,3.5 15.5,3.5 7.2,0 12.5,-1.2 15.5,-3.5 2.8,-2.1 4,-4.8 4,-8.5 l 0,-36.8 c 0,-2.3 1.9,-4.2 4.2,-4.2 l 1,0 c 2.3,0 4.2,1.9 4.2,4.2 l 0,36.9 c 0,6.4 -2.7,11.8 -7.7,15.5 -4.8,3.6 -11.7,5.4 -21.2,5.4 z"
         class="st1"
         inkscape:connector-curvature="0"
         style="fill:#1A4762;fill-opacity:1" />
    </g>
    <g
       id="g4692"
       style="fill:#1A4762;fill-opacity:1">
      <path
         id="path4694"
         d="m -169.1,239.8 -1,0 c -1.6,0 -3,-0.9 -3.7,-2.3 l -23.6,-46.1 -23.7,46.1 c -0.7,1.4 -2.1,2.3 -3.7,2.3 l -1.1,0 c -1.5,0 -2.8,-0.8 -3.6,-2 -0.8,-1.2 -0.8,-2.8 -0.1,-4.1 l 27.9,-54 c 0.7,-1.4 2.1,-2.3 3.7,-2.3 l 1.2,0 c 1.6,0 3,0.9 3.7,2.3 l 27.6,54 c 0.7,1.3 0.6,2.8 -0.2,4.1 -0.6,1.2 -1.9,2 -3.4,2 z"
         class="st1"
         inkscape:connector-curvature="0"
         style="fill:#1A4762;fill-opacity:1" />
    </g>
    <g
       id="g4696"
       style="fill:#1A4762;fill-opacity:1">
      <path
         id="path4698"
         d="m -105,239.6 -1,0 c -2.3,0 -4.2,-1.9 -4.2,-4.2 l 0,-36.8 c 0,-3.7 -1.3,-6.4 -4,-8.5 -3,-2.3 -8.2,-3.5 -15.5,-3.5 -7.2,0 -12.5,1.2 -15.5,3.5 -2.8,2.1 -4,4.8 -4,8.5 l 0,36.8 c 0,2.3 -1.9,4.2 -4.2,4.2 l -1,0 c -2.3,0 -4.2,-1.9 -4.2,-4.2 l 0,-36.9 c 0,-6.5 2.5,-11.7 7.6,-15.5 4.7,-3.6 11.7,-5.4 21.3,-5.4 9.5,0 16.4,1.8 21.2,5.4 5,3.7 7.7,9.1 7.7,15.5 l 0,36.9 c 0,2.3 -1.9,4.2 -4.2,4.2 z"
         class="st1"
         inkscape:connector-curvature="0"
         style="fill:#1A4762;fill-opacity:1" />
    </g>
    <path
       id="path4700"
       d="m -405.9,187.6 29.8,0 c 2.3,0 4.2,-1.9 4.2,-4.2 l 0,-1.1 c 0,-2.3 -1.9,-4.2 -4.2,-4.2 l -29.9,0 c -7.2,0 -13.1,2.7 -17.4,7.9 -0.5,0.6 -1,1.3 -1.5,2 -12.8,-7.5 -34.2,-14.8 -67.2,-19.6 38.7,9.2 57.5,18 64.3,25.9 5.1,5.9 3.4,11.4 -1.8,16.2 -13.9,12.8 -52.8,21 -54.5,21.4 -4.1,0.5 -7.3,3.8 -7.5,7.9 -0.2,4.6 3.5,8.4 8.2,8.6 1.3,0.1 2.6,-0.2 3.7,-0.6 l 0,0 c 0,0 32.1,-9.5 53,-22.2 0.9,2 2,3.8 3.3,5.4 4.3,5.2 10.2,7.8 17.4,7.8 l 29.9,0 c 2.3,0 4.2,-1.9 4.2,-4.2 l 0,-1 c 0,-2.3 -1.9,-4.2 -4.2,-4.2 l -29.8,0 c -4.5,0 -8,-1.5 -10.5,-4.5 -1,-1.2 -1.8,-2.7 -2.5,-4.6 6,-4.7 9.8,-9.7 9.7,-14.7 -0.1,-3.5 -2.6,-7.9 -8.1,-12.5 0.3,-0.4 0.6,-0.8 0.9,-1.2 2.5,-2.8 6,-4.3 10.5,-4.3 z"
       class="st1"
       inkscape:connector-curvature="0"
       style="fill:#1A4762;fill-opacity:1" />
  </g>
  <path
     style="opacity:1;fill:#1A4562;fill-opacity:1;fill-rule:nonzero;stroke:none;stroke-width:64;stroke-linecap:round;stroke-linejoin:round;stroke-miterlimit:4;stroke-dasharray:none;stroke-opacity:1"
     d="M 1724.0176,1.7e-5 C 3088.6442,806.94832 229.5879,1393.457 229.5879,1393.457 143.8032,1407.1665 74.6129,1451.847 32.959,1519.752 17.8646,1544.3556 7.2324,1571.7477 1.2129,1600 l 1190.9512,0 C 1761.7973,1370.7731 2438.7462,1032.7085 2560,684.04299 l 0,-210.2207 C 2509.1094,332.95163 2353.5232,165.43076 2061.2676,1.7e-5 l -337.25,0 z"
     id="path5970"
     inkscape:connector-curvature="0" />
</svg>
