<?xml version="1.0" encoding="UTF-8" standalone="no"?>
<svg
   xmlns:osb="http://www.openswatchbook.org/uri/2009/osb"
   xmlns:dc="http://purl.org/dc/elements/1.1/"
   xmlns:cc="http://creativecommons.org/ns#"
   xmlns:rdf="http://www.w3.org/1999/02/22-rdf-syntax-ns#"
   xmlns:svg="http://www.w3.org/2000/svg"
   xmlns="http://www.w3.org/2000/svg"
   xmlns:xlink="http://www.w3.org/1999/xlink"
   xmlns:sodipodi="http://sodipodi.sourceforge.net/DTD/sodipodi-0.dtd"
   xmlns:inkscape="http://www.inkscape.org/namespaces/inkscape"
   enable-background="new"
   version="1.1"
   id="svg6214"
   viewBox="0 0 2560 1920"
   height="1920"
   width="2560"
   preserveAspectRatio="xMinYMax slice"
   inkscape:version="0.48.5 r10040"
   sodipodi:docname="your-way_deepsea-narrow-large.svg"
   inkscape:export-filename="/home/sister/Desktop/chimaera/chimarea-working/backgrounds/final/your-way-deepsea-narrow-large.png"
   inkscape:export-xdpi="90"
   inkscape:export-ydpi="90">
  <sodipodi:namedview
     pagecolor="#ffffff"
     bordercolor="#666666"
     borderopacity="1"
     objecttolerance="10"
     gridtolerance="10"
     guidetolerance="10"
     inkscape:pageopacity="0"
     inkscape:pageshadow="2"
     inkscape:window-width="1673"
     inkscape:window-height="1144"
     id="namedview4497"
     showgrid="false"
     inkscape:zoom="0.5"
     inkscape:cx="1358.8115"
     inkscape:cy="853.22727"
     inkscape:window-x="134"
     inkscape:window-y="16"
     inkscape:window-maximized="0"
     inkscape:current-layer="svg6214" />
  <defs
     id="defs6216">
    <linearGradient
       id="linearGradient4217"
       osb:paint="solid">
      <stop
         style="stop-color:#000000;stop-opacity:1;"
         offset="0"
         id="stop4219" />
    </linearGradient>
    <linearGradient
       id="linearGradient4211"
       osb:paint="solid">
      <stop
         style="stop-color:#000000;stop-opacity:1;"
         offset="0"
         id="stop4213" />
    </linearGradient>
    <linearGradient
       id="linearGradient4205"
       osb:paint="solid">
      <stop
         style="stop-color:#1A4562;stop-opacity:1;"
         offset="0"
         id="stop4207" />
    </linearGradient>
    <linearGradient
       id="linearGradient13042">
      <stop
         id="stop13044"
         offset="0"
         style="stop-color:#7a7a7a;stop-opacity:1" />
    </linearGradient>
    <linearGradient
       osb:paint="solid"
       id="Logo">
      <stop
         id="stop12986"
         offset="0"
         style="stop-color:#1A4762;stop-opacity:1" />
    </linearGradient>
    <linearGradient
       osb:paint="solid"
       id="Swoosh"
       gradientTransform="translate(0,800)">
      <stop
         id="stop12968"
         offset="0"
         style="stop-color:#1A4562;stop-opacity:1" />
    </linearGradient>
    <linearGradient
       osb:paint="solid"
       id="text">
      <stop
         id="stop12962"
         offset="0"
         style="stop-color:#1A4762;stop-opacity:1;" />
    </linearGradient>
    <linearGradient
       osb:paint="solid"
       id="Background">
      <stop
         id="stop12956"
         offset="0"
         style="stop-color:#132F40;stop-opacity:1;" />
    </linearGradient>
    <clipPath
       id="clipPath7741-5-5"
       clipPathUnits="userSpaceOnUse">
      <path
         id="path7743-9-54"
         d="m 781.17578,2204.9575 -77.3086,0 1.4587,0 18.2331,33.5491 -22.6091,27.7144 5.8346,16.7745 74.3913,0 z"
         style="fill:#1A4562;fill-rule:evenodd;stroke:none;stroke-width:1px;stroke-linecap:butt;stroke-linejoin:miter;stroke-opacity:1" />
    </clipPath>
    <clipPath
       id="clipPath11301"
       clipPathUnits="userSpaceOnUse">
      <path
         id="path11303"
         d="m 193.98457,397.87227 c 146.6324,0 293.26476,0 439.89716,0 0,91.64524 0,183.29048 0,274.93572 -146.6324,0 -293.26476,0 -439.89716,0 0,-91.64524 0,-183.29048 0,-274.93572 z"
         style="display:inline;opacity:1;fill:#ffffff;fill-opacity:1;fill-rule:nonzero;stroke:none;stroke-width:64;stroke-linecap:round;stroke-linejoin:round;stroke-miterlimit:4;stroke-dasharray:none;stroke-opacity:1" />
    </clipPath>
    <clipPath
       id="clipPath4420"
       clipPathUnits="userSpaceOnUse">
      <rect
         y="-400"
         x="0"
         height="1920"
         width="2560"
         id="rect4422"
         style="fill:#5599ff" />
    </clipPath>
    <linearGradient
       gradientUnits="userSpaceOnUse"
       y2="382.2023"
       x2="1233.257"
       y1="382.2023"
       x1="398.7648"
       id="linearGradient12964"
       xlink:href="#text" />
    <linearGradient
       gradientUnits="userSpaceOnUse"
       y2="372.09656"
       x2="995.38296"
       y1="372.09656"
       x1="56.08879"
       id="linearGradient12988"
       xlink:href="#Logo" />
    <linearGradient
       gradientUnits="userSpaceOnUse"
       id="linearGradient13040"
       xlink:href="#Background" />
    <linearGradient
       gradientUnits="userSpaceOnUse"
       y2="372.09656"
       x2="995.38293"
       y1="372.09656"
       x1="56.088791"
       id="linearGradient13046"
       xlink:href="#Logo" />
    <clipPath
       id="clipPath4584"
       clipPathUnits="userSpaceOnUse">
      <path
         inkscape:connector-curvature="0"
         id="path4586"
         d="m 0,841.89 595.28,0 L 595.28,0 0,0 0,841.89 Z" />
    </clipPath>
    <linearGradient
       gradientUnits="userSpaceOnUse"
       y2="372.09656"
       x2="995.38293"
       y1="372.09656"
       x1="56.088791"
       id="linearGradient13046-1"
       xlink:href="#Logo" />
    <linearGradient
       gradientUnits="userSpaceOnUse"
       y2="372.09656"
       x2="995.38293"
       y1="372.09656"
       x1="56.088791"
       id="linearGradient12988-1"
       xlink:href="#Logo" />
    <clipPath
       id="clipPath7741-5-5-9"
       clipPathUnits="userSpaceOnUse">
      <path
         inkscape:connector-curvature="0"
         id="path7743-9-54-1"
         d="m 781.17578,2204.9575 -77.3086,0 1.4587,0 18.2331,33.5491 -22.6091,27.7144 5.8346,16.7745 74.3913,0 z"
         style="fill:#1A4562;fill-rule:evenodd;stroke:none;stroke-width:1px;stroke-linecap:butt;stroke-linejoin:miter;stroke-opacity:1" />
    </clipPath>
    <linearGradient
       inkscape:collect="always"
       xlink:href="#linearGradient4205"
       id="linearGradient4209"
       x1="0"
       y1="560"
       x2="2560"
       y2="560"
       gradientUnits="userSpaceOnUse" />
    <linearGradient
       inkscape:collect="always"
       xlink:href="#Background"
       id="linearGradient4215"
       x1="0"
       y1="560"
       x2="2560"
       y2="560"
       gradientUnits="userSpaceOnUse" />
    <linearGradient
       inkscape:collect="always"
       xlink:href="#text"
       id="linearGradient4269"
       gradientUnits="userSpaceOnUse"
       x1="-492.10001"
       y1="235.55"
       x2="165.7"
       y2="235.55"
       gradientTransform="matrix(1.2479598,0,0,1.2479598,907.97989,432.11464)" />
    <linearGradient
       inkscape:collect="always"
       xlink:href="#text"
       id="linearGradient4273"
       gradientUnits="userSpaceOnUse"
       x1="-492.10001"
       y1="235.55"
       x2="165.7"
       y2="235.55"
       gradientTransform="matrix(1.2479598,0,0,1.2479598,907.97989,432.11464)" />
    <linearGradient
       inkscape:collect="always"
       xlink:href="#text"
       id="linearGradient4277"
       gradientUnits="userSpaceOnUse"
       x1="-492.10001"
       y1="235.55"
       x2="165.7"
       y2="235.55"
       gradientTransform="matrix(1.2479598,0,0,1.2479598,907.97989,432.11464)" />
    <linearGradient
       inkscape:collect="always"
       xlink:href="#text"
       id="linearGradient4281"
       gradientUnits="userSpaceOnUse"
       x1="-492.10001"
       y1="235.55"
       x2="165.7"
       y2="235.55"
       gradientTransform="matrix(1.2479598,0,0,1.2479598,907.97989,432.11464)" />
    <linearGradient
       inkscape:collect="always"
       xlink:href="#text"
       id="linearGradient4285"
       gradientUnits="userSpaceOnUse"
       x1="-492.10001"
       y1="235.55"
       x2="165.7"
       y2="235.55"
       gradientTransform="matrix(1.2479598,0,0,1.2479598,907.97989,432.11464)" />
    <linearGradient
       inkscape:collect="always"
       xlink:href="#Background"
       id="linearGradient3055"
       gradientUnits="userSpaceOnUse"
       x1="0"
       y1="560"
       x2="2560"
       y2="560" />
  </defs>
  <metadata
     id="metadata6219">
    <rdf:RDF>
      <cc:Work
         rdf:about="">
        <dc:format>image/svg+xml</dc:format>
        <dc:type
           rdf:resource="http://purl.org/dc/dcmitype/StillImage" />
        <dc:title></dc:title>
      </cc:Work>
    </rdf:RDF>
  </metadata>
  <g
     id="g4969"
     style="fill:url(#linearGradient4215);fill-opacity:1;display:inline"
     transform="matrix(1,0,0,1.003125,0.13020233,401.33363)">
    <path
       style="fill:url(#linearGradient3055);fill-opacity:1;fill-rule:nonzero;stroke:none"
       d="m 0,-400 c 853.33331,0 1706.6667,0 2560,0 0,640 0,1280.00003 0,1920 -853.3333,0 -1706.66669,0 -2560,0 C 0,880.00003 0,240 0,-400 z"
       id="dark-bg"
       inkscape:connector-curvature="0" />
  </g>
  <g
     id="g4997"
     style="display:inline;fill-opacity:1;fill:url(#linearGradient4209)"
     transform="translate(0,400)">
    <g
       style="fill:url(#linearGradient4209);fill-opacity:1;stroke:url(#Swoosh)"
       clip-path="url(#clipPath4420)"
       id="g4398">
      <path
         style="fill:url(#linearGradient4209);fill-opacity:1;stroke:url(#Swoosh);stroke-width:0.57134259;stroke-linecap:butt;stroke-linejoin:round;stroke-miterlimit:4;stroke-dasharray:none;stroke-opacity:1"
         d="M -27.337891 -544.52344 C 5150.7305 691.17631 283.9192 1696.4295 254.58008 1702.4688 A 293.41258 304.41441 89.993447 0 0 -10.787109 1981.4395 A 293.41258 304.41441 89.993447 0 0 280.90039 2286.625 A 293.41258 304.41441 89.993447 0 0 411.23242 2263.6406 L 411.41406 2264.2852 C 411.41406 2264.2852 2923.1071 1517.8759 2904.2266 772.30664 C 2894.7485 398.02087 2134.0574 -235.06585 -27.337891 -544.52344 z "
         transform="translate(0,-400)"
         id="path5001" />
    </g>
  </g>
  <style
     id="style4636"
     type="text/css">
	.st0{fill:#1C1E21;}
	.st1{fill:#343B43;}
</style>
  <g
     id="g4323">
    <path
       id="path4638"
       d="m 407.9224,766.56787 c -5.24143,0 -9.60929,3.1199 -9.60929,7.61255 0,4.24306 2.87031,6.2398 9.48449,7.98694 6.73899,1.87194 8.73572,3.49429 8.73572,7.98695 0,4.74224 -3.61908,7.36296 -8.61092,7.36296 -4.36786,0 -6.86378,-1.37276 -9.73409,-3.61908 l -0.87357,0.99836 c 2.62072,2.24633 5.86541,3.99348 10.60766,3.99348 5.99021,0 10.23327,-3.49429 10.23327,-8.61093 0,-5.11663 -2.74551,-7.11337 -9.73409,-8.98531 -6.115,-1.62235 -8.36133,-3.24469 -8.36133,-6.98857 0,-3.99347 3.36949,-6.48939 7.98694,-6.48939 3.49429,0 5.61582,0.99836 8.36133,3.1199 l 0.87358,-1.12317 c -2.87031,-2.24633 -5.61582,-3.24469 -9.3597,-3.24469 l 0,0 z m 0,0"
       class="st0"
       inkscape:connector-curvature="0"
       style="fill:#25678C;fill-opacity:1" />
    <path
       id="path4640"
       d="m 438.62221,766.56787 c -7.48776,0 -12.60439,5.86541 -12.60439,16.22347 0,10.10848 4.86704,16.09869 12.60439,16.09869 7.48776,0 12.60439,-5.99021 12.60439,-16.34828 -0.12479,-10.35806 -4.99184,-15.97388 -12.60439,-15.97388 l 0,0 z m 0,1.12316 c 6.86378,0 10.85725,5.24143 10.85725,14.85072 0,9.73409 -4.11827,14.97552 -10.85725,14.97552 -6.86378,0 -10.85725,-5.49102 -10.85725,-14.85072 -0.1248,-9.73409 4.11827,-14.97552 10.85725,-14.97552 l 0,0 z m 0,0"
       class="st0"
       inkscape:connector-curvature="0"
       style="fill:#25678C;fill-opacity:1" />
    <path
       id="path4642"
       d="m 470.0708,755.33623 c 2.37112,0 4.24306,0.62398 6.36459,1.87194 l 0.49919,-1.12317 c -1.99674,-1.24796 -4.49266,-1.87194 -7.11338,-1.87194 -4.36786,0 -7.61255,2.49592 -7.61255,7.23817 l 0,5.86541 -5.36623,0 0,1.24796 5.36623,0 0,29.95104 1.62235,0 0,-29.95104 8.61092,0 0.24959,-1.24796 -8.86051,0 0,-5.74061 c 0.24959,-4.49266 2.49592,-6.2398 6.2398,-6.2398 l 0,0 z m 0,0"
       class="st0"
       inkscape:connector-curvature="0"
       style="fill:#25678C;fill-opacity:1" />
    <path
       id="path4644"
       d="m 493.28285,797.01809 -0.74878,-1.12317 c -1.62235,0.99837 -3.1199,1.62235 -5.36622,1.62235 -3.61909,0 -5.36623,-2.24633 -5.36623,-6.3646 l 0,-22.83766 8.36133,0 0.24959,-1.24796 -8.61092,0 0,-7.98694 -1.62235,0.12479 0,7.86215 -5.11663,0 0,1.24796 5.11663,0 0,22.83766 c 0,4.99184 2.74551,7.61256 6.86378,7.61256 2.62072,0 4.61745,-0.74878 6.2398,-1.74714 l 0,0 z m 0,0"
       class="st0"
       inkscape:connector-curvature="0"
       style="fill:#25678C;fill-opacity:1" />
    <path
       id="path4646"
       d="m 523.85786,798.26605 8.11174,-31.0742 -1.74714,0 -7.61256,29.70144 0.37439,0.1248 -8.48612,-29.82624 -1.99674,0 -8.48613,29.70144 0.37439,0.1248 -7.73735,-29.82624 -1.74714,0 8.23653,31.0742 1.99674,0 8.48612,-29.82624 -0.37438,0 8.48612,29.82624 2.12153,0 z m 0,0"
       class="st0"
       inkscape:connector-curvature="0"
       style="fill:#25678C;fill-opacity:1" />
    <path
       id="path4648"
       d="m 558.55115,791.65186 0,-15.7243 c 0,-6.115 -2.87031,-9.35969 -9.3597,-9.35969 -2.99511,0 -5.86541,0.74877 -9.11011,2.12153 l 0.37439,1.12316 c 3.24469,-1.37275 5.99021,-2.12153 8.73572,-2.12153 5.9902,0 7.86214,2.9951 7.86214,8.36133 l 0,3.74388 -6.86377,0 c -7.36297,0 -12.35481,3.49429 -12.35481,9.85888 0,5.49103 3.61909,9.23491 9.4845,9.23491 4.61745,0 7.98694,-2.12154 10.23327,-6.11501 l -0.24959,0 c 0,3.74388 1.37275,5.24143 3.86867,6.11501 l 0.37439,-0.99837 c -2.37112,-0.74878 -2.9951,-2.12153 -2.9951,-6.2398 l 0,0 z m -11.35644,5.86541 c -4.86704,0 -7.73735,-2.9951 -7.73735,-7.98694 0,-5.74062 4.11827,-8.61093 10.85725,-8.61093 l 6.61419,0 0,10.23327 c -1.99674,3.99348 -4.86704,6.3646 -9.73409,6.3646 l 0,0 z m 0,0"
       class="st0"
       inkscape:connector-curvature="0"
       style="fill:#25678C;fill-opacity:1" />
    <path
       id="path4650"
       d="m 583.01116,766.56787 c -4.74225,0 -7.73735,2.49592 -9.4845,8.23653 l 0.2496,0.1248 0,-7.73735 -1.49756,0 0,31.0742 1.62235,0 0,-20.59134 c 1.99674,-6.73898 4.49266,-9.85888 9.11011,-9.85888 1.12316,0 1.99673,0.12479 2.87031,0.37438 l 0.24959,-1.12316 c -0.74878,-0.37439 -1.62235,-0.49918 -3.1199,-0.49918 l 0,0 z m 0,0"
       class="st0"
       inkscape:connector-curvature="0"
       style="fill:#25678C;fill-opacity:1" />
    <path
       id="path4652"
       d="m 614.21015,781.169 c 0,-8.73572 -3.74388,-14.72593 -11.48123,-14.72593 -7.23816,0 -12.10521,6.115 -12.10521,16.47307 0,10.10847 4.99184,15.84909 12.6044,15.84909 3.99347,0 6.98857,-1.37276 9.60929,-3.61908 l -0.87357,-1.12317 c -2.87031,2.37113 -5.11664,3.49429 -8.86052,3.49429 -6.2398,0 -10.60766,-4.49266 -10.85725,-14.10195 l 21.7145,0 c 0.24959,-0.62398 0.24959,-1.37275 0.24959,-2.24632 l 0,0 z m -1.37275,1.12316 -20.46654,0 c 0.12479,-9.85888 4.61745,-14.60113 10.60765,-14.60113 6.86378,0 9.73409,5.49102 9.73409,12.97878 l 0,1.62235 0.1248,0 z m 0,0"
       class="st0"
       inkscape:connector-curvature="0"
       style="fill:#25678C;fill-opacity:1" />
    <path
       id="path4654"
       d="m 650.77538,755.33623 c 2.37112,0 4.24306,0.62398 6.36459,1.87194 l 0.49918,-1.12317 c -1.99673,-1.24796 -4.49265,-1.87194 -7.11337,-1.87194 -4.36786,0 -7.61255,2.49592 -7.61255,7.23817 l 0,5.86541 -5.36623,0 0,1.24796 5.36623,0 0,29.95104 1.62235,0 0,-29.95104 8.61092,0 0.24959,-1.24796 -8.86051,0 0,-5.74061 c 0.12479,-4.49266 2.49592,-6.2398 6.2398,-6.2398 l 0,0 z m 0,0"
       class="st0"
       inkscape:connector-curvature="0"
       style="fill:#25678C;fill-opacity:1" />
    <path
       id="path4656"
       d="m 671.99069,766.56787 c -4.74225,0 -7.73735,2.49592 -9.48449,8.23653 l 0.24959,0.1248 0,-7.73735 -1.49755,0 0,31.0742 1.62235,0 0,-20.59134 c 1.99673,-6.73898 4.49265,-9.85888 9.1101,-9.85888 1.12317,0 1.99674,0.12479 2.87031,0.37438 l 0.24959,-1.12316 c -0.74877,-0.37439 -1.74714,-0.49918 -3.1199,-0.49918 l 0,0 z m 0,0"
       class="st0"
       inkscape:connector-curvature="0"
       style="fill:#25678C;fill-opacity:1" />
    <path
       id="path4658"
       d="m 703.18969,781.169 c 0,-8.73572 -3.74388,-14.72593 -11.48123,-14.72593 -7.23817,0 -12.10521,6.115 -12.10521,16.47307 0,10.10847 4.99184,15.84909 12.60439,15.84909 3.99347,0 6.98858,-1.37276 9.60929,-3.61908 l -0.87357,-1.12317 c -2.87031,2.37113 -5.11664,3.49429 -8.86052,3.49429 -6.23979,0 -10.60765,-4.49266 -10.85725,-14.10195 l 21.7145,0 c 0.1248,-0.62398 0.2496,-1.37275 0.2496,-2.24632 l 0,0 z m -1.49755,1.12316 -20.46655,0 c 0.1248,-9.85888 4.61746,-14.60113 10.60766,-14.60113 6.86378,0 9.73409,5.49102 9.73409,12.97878 l 0,1.62235 0.1248,0 z m 0,0"
       class="st0"
       inkscape:connector-curvature="0"
       style="fill:#25678C;fill-opacity:1" />
    <path
       id="path4660"
       d="m 734.88787,781.169 c 0,-8.73572 -3.74388,-14.72593 -11.48123,-14.72593 -7.23817,0 -12.10521,6.115 -12.10521,16.47307 0,10.10847 4.99183,15.84909 12.60439,15.84909 3.99347,0 6.98857,-1.37276 9.60929,-3.61908 l -0.87357,-1.12317 c -2.87031,2.37113 -5.11664,3.49429 -8.86052,3.49429 -6.2398,0 -10.60765,-4.49266 -10.85725,-14.10195 l 21.7145,0 c 0.1248,-0.62398 0.2496,-1.37275 0.2496,-2.24632 l 0,0 z m -1.49756,1.12316 -20.46654,0 c 0.1248,-9.85888 4.61745,-14.60113 10.60766,-14.60113 6.86378,0 9.73409,5.49102 9.73409,12.97878 l 0,1.62235 0.12479,0 z m 0,0"
       class="st0"
       inkscape:connector-curvature="0"
       style="fill:#25678C;fill-opacity:1" />
    <path
       id="path4662"
       d="m 766.21166,754.33786 -1.49756,-0.1248 0,17.34665 0.2496,0 c -1.62235,-2.49592 -4.49266,-4.99184 -9.3597,-4.99184 -7.61256,0 -12.23001,6.61418 -12.23001,16.22347 0,10.10848 4.74225,16.09869 11.60603,16.09869 5.24143,0 8.23653,-2.74552 9.98368,-5.99021 l -0.2496,0 0.1248,5.36623 1.49755,0 -0.12479,-43.92819 0,0 z m -11.23164,43.17941 c -6.115,0 -9.98368,-5.36623 -9.98368,-14.85072 0,-9.2349 4.11827,-14.97552 10.60766,-14.97552 4.61745,0 7.23817,2.62072 9.1101,5.36623 l 0,17.84582 c -2.12153,4.11827 -4.74224,6.61419 -9.73408,6.61419 l 0,0 z m 0,0"
       class="st0"
       inkscape:connector-curvature="0"
       style="fill:#25678C;fill-opacity:1" />
    <path
       id="path4664"
       d="m 789.42371,766.56787 c -7.48776,0 -12.60439,5.86541 -12.60439,16.22347 0,10.10848 4.86704,16.09869 12.60439,16.09869 7.48776,0 12.60439,-5.99021 12.60439,-16.34828 0,-10.35806 -4.99184,-15.97388 -12.60439,-15.97388 l 0,0 z m 0,1.12316 c 6.86378,0 10.85725,5.24143 10.85725,14.85072 0,9.73409 -4.11827,14.97552 -10.85725,14.97552 -6.86378,0 -10.85725,-5.49102 -10.85725,-14.85072 0,-9.73409 4.24306,-14.97552 10.85725,-14.97552 l 0,0 z m 0,0"
       class="st0"
       inkscape:connector-curvature="0"
       style="fill:#25678C;fill-opacity:1" />
    <path
       id="path4666"
       d="m 842.5868,766.56787 c -4.24307,0 -7.86215,2.8703 -10.48287,7.11337 l 0.2496,0 c -0.62398,-4.49266 -3.3695,-7.11337 -7.61256,-7.11337 -4.11827,0 -7.86215,2.74551 -10.35807,6.86378 l 0.2496,0 -0.1248,-6.2398 -1.37275,0 0,31.0742 1.62234,0 0,-23.08726 c 2.62072,-4.36786 5.74062,-7.48776 9.98368,-7.48776 4.24306,0 6.2398,2.9951 6.2398,8.36133 l 0,22.08889 1.62235,0 0,-23.08726 c 2.62071,-4.36786 5.74061,-7.48776 9.98368,-7.48776 4.24306,0 6.2398,2.99511 6.2398,8.48613 l 0,21.96409 1.62234,0 0,-22.08889 c -0.12479,-5.86541 -2.8703,-9.35969 -7.86214,-9.35969 l 0,0 z m 0,0"
       class="st0"
       inkscape:connector-curvature="0"
       style="fill:#25678C;fill-opacity:1" />
    <path
       id="path4668"
       d="m 861.80538,795.89492 c -0.87357,0 -1.62235,0.62398 -1.62235,1.49755 0,0.49919 0.49918,0.99837 0.87357,1.12317 l -2.24633,7.48776 1.37276,0 2.62072,-6.73899 c 0.24959,-0.62398 0.49918,-1.24796 0.49918,-1.87194 0.1248,-0.87357 -0.49918,-1.49755 -1.49755,-1.49755 l 0,0 z m 0,0"
       class="st0"
       inkscape:connector-curvature="0"
       style="fill:#25678C;fill-opacity:1" />
    <path
       id="path4670"
       d="m 898.99458,798.26605 10.85725,-31.199 -1.87194,0 -10.23327,29.95104 0.24959,0.12479 -10.60766,-30.07583 -1.74714,0 11.23164,31.0742 0.49918,0 c -2.24633,5.99021 -3.36949,8.73572 -9.73408,10.60766 l 0.12479,1.12316 c 6.86378,-1.87194 8.86052,-4.74225 11.23164,-11.60602 l 0,0 z m 0,0"
       class="st0"
       inkscape:connector-curvature="0"
       style="fill:#25678C;fill-opacity:1" />
    <path
       id="path4672"
       d="m 926.94888,766.56787 c -7.48776,0 -12.6044,5.86541 -12.6044,16.22347 0,10.10848 4.86705,16.09869 12.6044,16.09869 7.48776,0 12.60439,-5.99021 12.60439,-16.34828 -0.12479,-10.35806 -4.99184,-15.97388 -12.60439,-15.97388 l 0,0 z m 0,1.12316 c 6.86378,0 10.85725,5.24143 10.85725,14.85072 0,9.73409 -4.11827,14.97552 -10.85725,14.97552 -6.86378,0 -10.85725,-5.49102 -10.85725,-14.85072 -0.1248,-9.73409 4.11827,-14.97552 10.85725,-14.97552 l 0,0 z m 0,0"
       class="st0"
       inkscape:connector-curvature="0"
       style="fill:#25678C;fill-opacity:1" />
    <path
       id="path4674"
       d="m 971.37625,798.26605 0,-31.0742 -1.62235,0 0,23.21205 c -2.49592,4.24306 -5.49102,7.23817 -10.35807,7.23817 -4.86704,0 -7.48776,-2.74552 -7.48776,-8.36134 l 0,-22.08888 -1.62234,0 0,22.08888 c 0,6.2398 3.36949,9.4845 8.98531,9.4845 5.11663,0 8.73572,-3.1199 10.85725,-6.98858 l -0.37439,0 0,6.3646 1.62235,0 z m 0,0"
       class="st0"
       inkscape:connector-curvature="0"
       style="fill:#25678C;fill-opacity:1" />
    <path
       id="path4676"
       d="m 995.83626,766.56787 c -4.74225,0 -7.73735,2.49592 -9.48449,8.23653 l 0.24959,0.1248 0,-7.73735 -1.49755,0 0,31.0742 1.62234,0 0,-20.59134 c 1.99674,-6.73898 4.49266,-9.85888 9.11011,-9.85888 1.12316,0 1.99674,0.12479 2.87031,0.37438 l 0.24959,-1.12316 c -0.74878,-0.37439 -1.74714,-0.49918 -3.1199,-0.49918 l 0,0 z m 0,0"
       class="st0"
       inkscape:connector-curvature="0"
       style="fill:#25678C;fill-opacity:1" />
    <path
       id="path4678"
       d="m 1048.3754,798.26605 8.1117,-31.0742 -1.7471,0 -7.6126,29.70144 0.3744,0.1248 -8.4861,-29.82624 -1.9968,0 -8.4861,29.70144 0.3744,0.1248 -7.7374,-29.82624 -1.7471,0 8.2365,31.0742 1.9968,0 8.4861,-29.82624 -0.3744,0 8.4861,29.82624 2.1216,0 z m 0,0"
       class="st0"
       inkscape:connector-curvature="0"
       style="fill:#25678C;fill-opacity:1" />
    <path
       id="path4680"
       d="m 1083.0686,791.65186 0,-15.7243 c 0,-6.115 -2.8703,-9.35969 -9.3596,-9.35969 -2.9952,0 -5.8655,0.74877 -9.1102,2.12153 l 0.3744,1.12316 c 3.2447,-1.37275 5.9902,-2.12153 8.7358,-2.12153 5.9902,0 7.7373,2.9951 7.7373,8.36133 l 0,3.74388 -6.8638,0 c -7.3629,0 -12.3548,3.49429 -12.3548,9.85888 0,5.49103 3.6191,9.23491 9.4845,9.23491 4.6175,0 7.987,-2.12154 10.2333,-6.11501 l -0.2496,0 c 0,3.74388 1.3727,5.24143 3.8687,6.11501 l 0.3744,-0.99837 c -2.2464,-0.74878 -2.8704,-2.12153 -2.8704,-6.2398 l 0,0 z m -11.3564,5.86541 c -4.867,0 -7.7373,-2.9951 -7.7373,-7.98694 0,-5.74062 4.1182,-8.61093 10.8572,-8.61093 l 6.6142,0 0,10.23327 c -2.1215,3.99348 -4.9918,6.3646 -9.7341,6.3646 l 0,0 z m 0,0"
       class="st0"
       inkscape:connector-curvature="0"
       style="fill:#25678C;fill-opacity:1" />
    <path
       id="path4682"
       d="m 1103.9096,798.26605 10.8572,-31.199 -1.8719,0 -10.2333,29.95104 0.2496,0.12479 -10.6076,-30.07583 -1.7472,0 11.2316,31.0742 0.4992,0 c -2.2463,5.99021 -3.3695,8.73572 -9.7341,10.60766 l 0.1248,1.12316 c 6.8638,-1.87194 8.7358,-4.74225 11.2317,-11.60602 l 0,0 z m 0,0"
       class="st0"
       inkscape:connector-curvature="0"
       style="fill:#25678C;fill-opacity:1" />
    <path
       style="fill:url(#linearGradient4269);fill-opacity:1"
       inkscape:connector-curvature="0"
       class="st1"
       d="m 493.40764,730.75142 -1.49755,0 c -1.87194,0 -3.74388,-1.12316 -4.61745,-2.74551 l -34.81808,-66.26667 c -0.87357,-1.62234 -0.74877,-3.49428 0.1248,-5.11663 0.99837,-1.49755 2.62071,-2.49592 4.36786,-2.49592 l 1.37275,0 c 1.87194,0 3.74388,1.12316 4.61746,2.74551 l 29.57664,56.65737 29.45185,-56.65737 c 0.87358,-1.74714 2.62072,-2.74551 4.61746,-2.74551 l 1.24795,0 c 1.74715,0 3.49429,0.99837 4.36786,2.49592 0.99837,1.49755 0.99837,3.49429 0.1248,5.11663 l -34.56849,66.26667 c -0.74877,1.62235 -2.49592,2.74551 -4.36786,2.74551 z"
       id="path4686" />
    <path
       style="fill:url(#linearGradient4273);fill-opacity:1"
       inkscape:connector-curvature="0"
       class="st1"
       d="m 577.02095,731.12581 c -11.98041,0 -20.59134,-2.24633 -26.58154,-6.73898 -6.11501,-4.74225 -9.4845,-11.35644 -9.4845,-19.34338 l 0,-46.04972 c 0,-2.87031 2.37113,-5.24143 5.24143,-5.24143 l 1.24796,0 c 2.87031,0 5.24143,2.37112 5.24143,5.24143 l 0,45.92492 c 0,4.61745 1.62235,7.98694 4.99184,10.60766 3.74388,2.87031 10.23327,4.36786 19.34338,4.36786 8.98531,0 15.5995,-1.49755 19.34338,-4.36786 3.49429,-2.62072 4.99184,-5.99021 4.99184,-10.60766 l 0,-45.92492 c 0,-2.87031 2.37112,-5.24143 5.24143,-5.24143 l 1.24796,0 c 2.87031,0 5.24143,2.37112 5.24143,5.24143 l 0,46.04972 c 0,7.98694 -3.36949,14.72592 -9.60929,19.34338 -5.99021,4.49265 -14.60113,6.73898 -26.45675,6.73898 z"
       id="path4690" />
    <path
       style="fill:url(#linearGradient4277);fill-opacity:1"
       inkscape:connector-curvature="0"
       class="st1"
       d="m 696.94989,731.3754 -1.24796,0 c -1.99674,0 -3.74388,-1.12316 -4.61745,-2.87031 l -29.45185,-57.53094 -29.57665,57.53094 c -0.87357,1.74715 -2.62072,2.87031 -4.61745,2.87031 l -1.37276,0 c -1.87194,0 -3.49429,-0.99837 -4.49265,-2.49592 -0.99837,-1.49755 -0.99837,-3.49429 -0.1248,-5.11663 l 34.81808,-67.38983 c 0.87357,-1.74715 2.62071,-2.87031 4.61745,-2.87031 l 1.49755,0 c 1.99674,0 3.74388,1.12316 4.61745,2.87031 l 34.44369,67.38983 c 0.87357,1.62234 0.74878,3.49428 -0.24959,5.11663 -0.74877,1.49755 -2.37112,2.49592 -4.24306,2.49592 z"
       id="path4694" />
    <path
       style="fill:url(#linearGradient4281);fill-opacity:1"
       inkscape:connector-curvature="0"
       class="st1"
       d="m 776.94411,731.12581 -1.24796,0 c -2.87031,0 -5.24143,-2.37113 -5.24143,-5.24143 l 0,-45.92492 c 0,-4.61745 -1.62235,-7.98695 -4.99184,-10.60766 -3.74388,-2.87031 -10.23327,-4.36786 -19.34338,-4.36786 -8.98531,0 -15.59949,1.49755 -19.34337,4.36786 -3.49429,2.62071 -4.99184,5.99021 -4.99184,10.60766 l 0,45.92492 c 0,2.8703 -2.37113,5.24143 -5.24143,5.24143 l -1.24796,0 c -2.87031,0 -5.24143,-2.37113 -5.24143,-5.24143 l 0,-46.04972 c 0,-8.11174 3.1199,-14.60113 9.48449,-19.34338 5.86541,-4.49265 14.60113,-6.73898 26.58154,-6.73898 11.85562,0 20.46654,2.24633 26.45675,6.73898 6.2398,4.61745 9.60929,11.35644 9.60929,19.34338 l 0,46.04972 c 0,2.8703 -2.37112,5.24143 -5.24143,5.24143 z"
       id="path4698" />
    <path
       id="path4700"
       d="m 401.43301,666.2319 37.1892,0 c 2.87031,0 5.24143,-2.37113 5.24143,-5.24143 l 0,-1.37276 c 0,-2.87031 -2.37112,-5.24143 -5.24143,-5.24143 l -37.314,0 c -8.98531,0 -16.34827,3.36949 -21.7145,9.85888 -0.62398,0.74878 -1.24796,1.62235 -1.87194,2.49592 -15.97388,-9.3597 -42.68022,-18.4698 -83.8629,-24.46001 48.29605,11.48123 71.75769,22.46328 80.24382,32.32216 6.36459,7.36296 4.24306,14.22674 -2.24633,20.21695 -17.34664,15.97388 -65.89228,26.20715 -68.01381,26.70634 -5.11663,0.62398 -9.11011,4.74224 -9.3597,9.85888 -0.24959,5.74062 4.36786,10.48286 10.23327,10.73245 1.62235,0.1248 3.2447,-0.24959 4.61745,-0.74877 l 0,0 c 0,0 40.05951,-11.85562 66.14187,-27.70471 1.12317,2.49592 2.49592,4.74225 4.11827,6.73898 5.36623,6.48939 12.72919,9.73409 21.7145,9.73409 l 37.314,0 c 2.87031,0 5.24143,-2.37112 5.24143,-5.24143 l 0,-1.24796 c 0,-2.87031 -2.37112,-5.24143 -5.24143,-5.24143 l -37.1892,0 c -5.61582,0 -9.98368,-1.87194 -13.10358,-5.61582 -1.24796,-1.49755 -2.24633,-3.36949 -3.1199,-5.74062 7.48776,-5.86541 12.23001,-12.10521 12.10521,-18.34501 -0.1248,-4.36785 -3.2447,-9.85888 -10.10847,-15.59949 0.37438,-0.49919 0.74877,-0.99837 1.12316,-1.49755 3.1199,-3.49429 7.48776,-5.36623 13.10358,-5.36623 z"
       class="st1"
       inkscape:connector-curvature="0"
       style="fill:url(#linearGradient4285);fill-opacity:1" />
  </g>
</svg>
